<svg width="439" height="249" viewBox="0 0 439 249" fill="none" xmlns="http://www.w3.org/2000/svg">
<path d="M50.767 5.21907H433.81V202.142H50.767V5.21907Z" fill="#FEFEFE"/>
<path d="M266.496 66.5716H283.083V138.292H266.128C264 136.005 262.648 133.905 262.073 131.992C261.446 130.19 260.381 128.682 259.334 127.1C258.929 126.453 258.527 125.806 258.125 125.158C257.926 124.838 257.724 124.515 257.521 124.187C256.518 122.576 255.519 120.965 254.52 119.354C254.122 118.711 253.721 118.067 253.323 117.424C252.523 116.136 251.727 114.849 250.927 113.562C250.728 113.242 250.532 112.922 250.326 112.594C249.931 111.958 249.533 111.318 249.139 110.682C248.085 108.986 247.034 107.291 245.98 105.595C245.759 105.238 245.538 104.885 245.313 104.517C244.889 103.833 244.461 103.149 244.038 102.465C243.846 102.16 243.658 101.851 243.463 101.538C243.293 101.266 243.127 100.998 242.954 100.718C242.684 100.272 242.426 99.8035 242.18 99.3131C242.058 112.057 241.937 124.802 241.811 137.932H225.593V66.9468H241.811C243.783 70.0069 245.737 73.0523 247.617 76.1638C249.294 78.9223 250.978 81.6771 252.685 84.4173C254.332 87.0691 255.969 89.7283 257.591 92.3948C260.425 97.0401 263.282 101.671 266.139 106.301C266.26 93.1929 266.382 80.0846 266.507 66.579L266.496 66.5716Z" fill="#01C0A9"/>
<path d="M352.678 71.6509C356.228 75.0237 359.117 79.3159 359.751 84.226C357.975 84.9947 356.198 85.7597 354.422 86.5211C353.817 86.7822 353.216 87.0397 352.612 87.3008C351.742 87.676 350.868 88.0511 349.995 88.4263C349.729 88.5403 349.464 88.658 349.191 88.7757C347.333 89.5701 345.454 90.2358 343.529 90.8464C343.436 90.5448 343.34 90.2395 343.242 89.9306C342.055 86.4806 340.544 83.6743 337.319 81.7654C332.608 79.5402 327.418 79.6138 322.519 81.2836C318.62 82.7107 315.792 85.6678 314.042 89.3752C311.491 95.9661 311.31 105.665 314.042 112.179C316.168 116.89 318.782 119.48 323.485 121.609C325.376 122.293 327.23 122.29 329.224 122.267C329.6 122.265 329.98 122.261 330.363 122.256C334.893 122.157 338.343 120.789 342.21 118.571C342.844 118.23 343.407 118.06 343.898 118.06V111.807H333.577V97.0953H361.222C361.33 101.962 361.397 105.438 361.421 107.522C361.447 109.652 361.473 111.778 361.528 113.907C361.572 115.625 361.598 117.343 361.605 119.06C361.613 119.715 361.628 120.366 361.65 121.021C361.76 124.426 361.323 126.758 360.338 128.016C359.317 128.862 358.318 129.543 357.168 130.197C356.932 130.355 356.699 130.514 356.456 130.675C348.889 135.755 339.549 138.079 330.536 138.035C330.068 138.035 329.6 138.031 329.117 138.028C319.302 137.903 310.787 134.846 303.655 127.946C295.807 119.612 293.813 108.431 294.089 97.4447C294.454 89.5554 297.466 81.7581 302.619 75.7629C302.899 75.4099 303.183 75.0568 303.47 74.6926C308.564 68.6092 316.876 65.2255 324.598 64.4789C334.473 63.6881 344.949 64.9644 352.678 71.6509Z" fill="#01C0A9"/>
<path d="M123.48 66.9394C152.388 66.9394 168.953 68.9758 173.175 73.0486C177.719 78.0065 179.422 83.792 179.22 90.4271C178.962 96.036 177.439 100.965 173.613 105.191C173.429 105.411 173.245 105.632 173.057 105.86C168.895 110.513 162.644 112.079 156.658 112.547C153.901 112.657 151.144 112.616 148.386 112.591C145.884 112.576 143.385 112.561 140.808 112.547V138.292H123.484V66.9394H123.48Z" fill="#00C0A9"/>
<path d="M188.722 66.9394H206.046V137.925H188.722V66.9394Z" fill="#00C0A9"/>
<path d="M45.7061 0C44.0646 2.18473 42.7979 3.75523 41.9059 4.71151C40.7669 5.95467 39.6722 7.21622 38.6106 8.52926C37.2837 10.166 35.9199 11.7659 34.5339 13.3548C34.33 13.5877 34.1248 13.8231 33.9184 14.061C33.5055 14.5354 33.0927 15.0062 32.6799 15.4807C30.4241 18.07 28.1756 20.6666 26.0083 23.3332C24.11 25.6687 22.1232 27.927 20.1476 30.1926C17.8917 32.7819 15.6433 35.3786 13.4759 38.0451C11.7767 40.1342 10.0074 42.1608 8.23816 44.1911C7.02916 45.5777 5.82753 46.9716 4.62959 48.3693C4.45635 48.5715 4.28311 48.7738 4.10249 48.9835C3.9354 49.1796 3.76584 49.377 3.59383 49.5756C3.43165 49.7669 3.26578 49.9582 3.09622 50.1531C2.72025 50.5944 2.34428 51.0358 1.972 51.4808C1.77296 51.7162 1.57391 51.9516 1.3675 52.198C1.1832 52.415 1.00259 52.6321 0.814601 52.8564C0.667162 53.0146 0.519723 53.1727 0.368598 53.3345H0V249.004H399.56C400.972 247.128 402.31 245.418 403.913 243.74C405.277 242.295 406.586 240.831 407.828 239.283C409.313 237.436 410.905 235.719 412.531 233.997C414.02 232.412 415.402 230.765 416.762 229.069C418.119 227.44 419.571 225.906 421.016 224.361C422.597 222.666 424.112 220.915 425.616 219.153C425.992 218.715 426.364 218.278 426.74 217.84C426.928 217.619 427.12 217.395 427.315 217.167C428.561 215.714 429.837 214.298 431.142 212.897C432.988 210.903 434.709 208.825 436.416 206.714C437.139 205.842 437.872 204.985 438.628 204.14H438.996V0H45.7061ZM428.311 193.462H56.3955V10.6662H428.311V193.462Z" fill="#00C0A9"/>
<path d="M140.804 82.0192C142.986 81.9971 145.169 81.9751 147.417 81.9493C148.098 81.9395 148.787 81.9297 149.485 81.9199C150.034 81.9199 150.587 81.9125 151.136 81.9125C151.414 81.9076 151.694 81.9015 151.977 81.8941C154.509 81.8941 156.96 82.4054 159.006 83.9722C160.731 85.734 161.155 87.0764 161.262 89.5113C161.203 91.7806 160.782 93.2187 159.234 94.8885C159.065 95.0724 158.895 95.26 158.718 95.4475C155.53 98.2428 149.776 97.5587 145.825 97.5072C144.166 97.4925 142.511 97.4778 140.804 97.4631V82.0155V82.0192Z" fill="#FCFEFE"/>
</svg>
